# xmcd
#
# Track frame offsets:
#	150
#	18712
#	32152
#	50270
#	63799
#	78471
#	95102
#	107187
#	121127
#	140662
#	158254
#
# Disc length: 2308 seconds
#
# Revision: 1
# Processed by: cddbd v1.5.2PL0 Copyright (c) Steve Scherf et al.
# Submitted via: audiograbber 1.83.01
#
DISCID=8b09020b
DTITLE=Steve Waylon - State Of Mind
DYEAR=2009
DGENRE=Country
TTITLE0=I Run This Joint
TTITLE1=Big Train
TTITLE2=To Have That Dance
TTITLE3=No Deposit No Return
TTITLE4=Simple Life "Got So Tough"
TTITLE5=Home Sweet Home
TTITLE6=Crusin (Down A Lake Road)
TTITLE7=I'll Come Up With Somethin'
TTITLE8=Country State Of Mind
TTITLE9=The Day I Told Her
TTITLE10=You Don't Hold A Candle
EXTD=
EXTT0=
EXTT1=
EXTT2=
EXTT3=
EXTT4=
EXTT5=
EXTT6=
EXTT7=
EXTT8=
EXTT9=
EXTT10=
PLAYORDER=
